<?xml version="1.0" encoding="iso-8859-1"?>
<!-- Uploaded to: SVG Repo, www.svgrepo.com, Generator: SVG Repo Mixer Tools -->
<svg fill="#000000" height="800px" width="800px" version="1.1" id="Capa_1" xmlns="http://www.w3.org/2000/svg" xmlns:xlink="http://www.w3.org/1999/xlink" 
	 viewBox="0 0 612 612" xml:space="preserve">
<g>
	<path d="M380.406,254.483c-7.043,3.727-14.33,6.947-21.83,9.607c-16.626,5.899-34.283,9.08-52.575,9.08
		c-33.516,0-66.005,7.368-96.563,21.901c-7.149,3.4-14.112,7.16-20.886,11.26c-4.681,2.834-9.263,5.844-13.756,9.005
		c-4.306,3.03-8.526,6.205-12.652,9.531c-10.795,8.703-20.974,18.401-30.467,29.075c-45.35,50.992-70.326,118.535-70.326,190.186
		v47.975c0,10.989,8.908,19.897,19.897,19.897h26.529c10.988,0,19.897-8.908,19.897-19.897v-31.137h14.923h14.923h296.963h14.923
		h14.923v31.137c0,10.989,8.908,19.897,19.897,19.897h26.529c10.988,0,19.897-8.908,19.897-19.897v-47.975
		c0-71.652-24.975-139.194-70.325-190.186c-9.493-10.674-19.672-20.372-30.467-29.075c-11.004,7.412-22.507,13.983-34.475,19.675
		c-11.429,5.436-23.101,9.98-34.975,13.637c23.809,12.596,44.8,31.04,61.573,53.719h-18.929h-20.193H209.144H188.95h-18.929
		c16.774-22.679,37.764-41.123,61.573-53.719c7.044-3.726,14.33-6.947,21.83-9.607c16.626-5.899,34.283-9.08,52.576-9.08
		c33.516,0,66.005-7.368,96.563-21.901c7.149-3.4,14.112-7.16,20.886-11.26c4.681-2.834,9.263-5.844,13.756-9.005
		c4.306-3.03,8.525-6.204,12.652-9.531c10.795-8.703,20.975-18.401,30.467-29.075c45.35-50.992,70.325-118.535,70.325-190.186
		V19.897C550.649,8.908,541.741,0,530.752,0h-26.529c-10.988,0-19.897,8.908-19.897,19.897v31.071h-14.923h-14.923H157.519h-14.923
		h-14.923V19.897C127.674,8.908,118.765,0,107.777,0H81.248C70.259,0,61.351,8.908,61.351,19.897v48.638
		c0,71.652,24.975,139.194,70.325,190.186c9.493,10.674,19.672,20.372,30.467,29.075c11.004-7.412,22.507-13.983,34.475-19.676
		c11.429-5.435,23.101-9.98,34.975-13.637c-24.064-12.731-45.249-31.435-62.111-54.448h18.853h20.09h195.146h20.09h18.854
		C425.655,223.048,404.471,241.752,380.406,254.483z M170.966,471.59h270.069h15.944h15.763c3.174,9.575,5.739,19.49,7.64,29.687
		H465.2h-15.245H162.046h-15.245H131.62c1.901-10.196,4.466-20.111,7.64-29.687h15.763H170.966z M441.312,140.344H170.688h-15.922
		h-15.748c-3.138-9.578-5.671-19.493-7.536-29.687h15.181h15.23h288.216h15.23h15.182c-1.866,10.194-4.399,20.108-7.536,29.687
		h-15.748H441.312z"/>
</g>
</svg>